<svg width="48" height="48" viewBox="0 0 48 48" fill="none" xmlns="http://www.w3.org/2000/svg">
<path d="M34.5 38C36.7543 38 38.9163 37.1045 40.5104 35.5104C42.1045 33.9163 43 31.7543 43 29.5C43 27.2457 42.1045 25.0836 40.5104 23.4896C38.9163 21.8955 36.7543 21 34.5 21C32.7905 21.0005 31.1208 21.5164 29.709 22.4805C30.5777 18.7772 32.1222 16.1967 33.6426 14.4102C35.9316 11.7206 38.0566 10.8926 38.0566 10.8926C38.2442 10.8228 38.4159 10.7163 38.5616 10.5792C38.7073 10.4422 38.8242 10.2773 38.9053 10.0944C38.9863 9.91154 39.03 9.71426 39.0337 9.51423C39.0374 9.3142 39.0011 9.11544 38.9268 8.92966C38.8526 8.74389 38.7419 8.57484 38.6013 8.43247C38.4608 8.29011 38.2931 8.17729 38.1083 8.10068C37.9235 8.02406 37.7252 7.98519 37.5252 7.98634C37.3251 7.9875 37.1273 8.02867 36.9434 8.10741C36.9434 8.10741 34.0684 9.27942 31.3574 12.4648C28.6464 15.6503 26 20.9274 26 29C25.9999 29.0732 26.0051 29.1463 26.0156 29.2187C25.9779 30.3571 26.1694 31.4914 26.5787 32.5544C26.988 33.6173 27.6067 34.5871 28.3981 35.4062C29.1895 36.2253 30.1375 36.877 31.1857 37.3226C32.2339 37.7682 33.361 37.9985 34.5 38ZM13.5 38C15.7543 38 17.9163 37.1045 19.5104 35.5104C21.1045 33.9163 22 31.7543 22 29.5C22 27.2457 21.1045 25.0836 19.5104 23.4896C17.9163 21.8955 15.7543 21 13.5 21C11.7905 21.0005 10.1208 21.5164 8.70898 22.4805C9.57773 18.7772 11.1222 16.1967 12.6426 14.4102C14.9316 11.7206 17.0566 10.8926 17.0566 10.8926C17.2442 10.8228 17.4159 10.7163 17.5616 10.5792C17.7073 10.4422 17.8242 10.2773 17.9053 10.0944C17.9863 9.91154 18.03 9.71426 18.0337 9.51423C18.0374 9.3142 18.0011 9.11544 17.9268 8.92966C17.8526 8.74389 17.7419 8.57484 17.6013 8.43247C17.4608 8.29011 17.2931 8.17729 17.1083 8.10068C16.9235 8.02406 16.7252 7.98519 16.5252 7.98634C16.3251 7.9875 16.1273 8.02867 15.9434 8.10741C15.9434 8.10741 13.0684 9.27942 10.3574 12.4648C7.64643 15.6503 5 20.9274 5 29C4.99986 29.0732 5.00508 29.1463 5.01562 29.2187C4.97794 30.3571 5.16942 31.4914 5.5787 32.5544C5.98798 33.6173 6.6067 34.5871 7.39812 35.4062C8.18954 36.2253 9.13751 36.877 10.1857 37.3226C11.2339 37.7682 12.361 37.9985 13.5 38Z" fill="#FFD913"/>
</svg>
